<svg width="32" height="32" viewBox="0 0 32 32" fill="none" xmlns="http://www.w3.org/2000/svg">
<g id="atoms/icons/colored/sharp/ok">
<rect id="bg" width="32" height="32" rx="16" fill="white"/>
<g id="ok">
<path fill-rule="evenodd" clip-rule="evenodd" d="M20.4692 11.893C20.4692 14.3131 18.4714 16.286 16.0206 16.286C13.5434 16.286 11.5456 14.3131 11.5456 11.893C11.5456 9.47292 13.5434 7.5 16.0206 7.5C18.4714 7.5 20.4692 9.47292 20.4692 11.893ZM17.8587 11.893C17.8587 10.8934 17.0329 10.0779 16.0206 10.0779C14.9818 10.0779 14.156 10.8934 14.1827 11.893C14.1827 12.8926 15.0085 13.7081 16.0206 13.7081C17.0329 13.7081 17.8587 12.8926 17.8587 11.893Z" fill="#5B9BC6"/>
<path d="M20.3893 18.8377C19.5902 19.3375 18.7111 19.6795 17.8055 19.89L20.336 22.31C20.8421 22.8099 20.8421 23.6253 20.336 24.1252C19.83 24.6249 19.0042 24.6249 18.4981 24.1252L16.0473 21.705L13.5967 24.1252C13.3303 24.3619 13.0107 24.4934 12.6644 24.4934C12.3181 24.4934 11.9984 24.3882 11.7321 24.1252C11.2259 23.6253 11.2259 22.8099 11.7321 22.31L14.2094 19.8636C13.3037 19.6531 12.4246 19.3113 11.6255 18.8114C11.0128 18.4432 10.8264 17.654 11.1727 17.049C11.5722 16.4439 12.3714 16.2861 12.984 16.6544C14.7954 17.7855 17.1661 17.7855 18.9775 16.6544C19.5902 16.2598 20.416 16.4439 20.7889 17.049C21.1884 17.654 21.002 18.4694 20.3893 18.8377Z" fill="#5B9BC6"/>
</g>
</g>
</svg>
