<svg width="32" height="32" viewBox="0 0 32 32" fill="none" xmlns="http://www.w3.org/2000/svg">
<g id="atoms/icons/colored/sharp/ok">
<rect id="bg" width="32" height="32" rx="16" fill="#F3F6FA"/>
<path id="Vector" d="M16.8891 22.5C10.0559 22.5 6.15984 18.0036 6 10.5096H9.43656C9.54645 16.0052 12.0639 18.3303 14.0619 18.8106V10.5096H17.2887V15.2462C19.2567 15.0444 21.3347 12.8827 22.034 10.5H25.2507C24.9885 11.7334 24.4645 12.9015 23.7116 13.9314C22.9588 14.9613 21.9932 15.8308 20.8751 16.4856C22.1228 17.0828 23.2247 17.9277 24.1081 18.9644C24.9914 20.0011 25.6363 21.2061 26 22.5H22.4535C21.6943 20.223 19.7962 18.4552 17.2887 18.215V22.5H16.8991H16.8891Z" fill="#5B9BC6"/>
</g>
</svg>
